<?xml version="1.0" encoding="utf-8"?>
<?xml-stylesheet type="text/xsl" href="rss1.xsl"?>
<rss version="2.0" xmlns:atom="http://www.w3.org/2005/Atom" xmlns:content="http://purl.org/rss/1.0/modules/content/" xmlns:dc="http://purl.org/dc/elements/1.1/" xmlns:media="http://search.yahoo.com/mrss/">
<channel>
 <title>Getty</title>
 <link>http://www.gettyimg.com/</link>
 <atom:link href="http://www.gettyimg.com/" rel="self" type="application/rss+xml" />

 
                <item>
                <title><![CDATA[【Interviews / TV shows / Others】WEB-RiP - NHK World-Japan Music Festival 2023 - 11/19-26/23 - 720 NHK World-Japan]]></title>
                <link><![CDATA[https://sharemania.us/threads/nhk-world-japan-music-festival-2023-11-19-26-23-720-nhk-world-japan.241402/]]></link>
                <description><![CDATA[<article>
<blockquote class="messageText SelectQuoteContainer ugc baseHtml">
<img src="https://i.imgur.com/vnZcBKu.jpeg" class="bbCodeImage LbImage" alt="[​IMG]" data-url="https://i.imgur.com/vnZcBKu.jpeg" style=""> <br>
It's time for the moment you've been waiting for! The NHK-World Japan Music Festival! Both of the 2 parts will be shown here, and the 2nd one is jam packed with ANIME OPs and EDs!<br>
<b><span style="text-decoration: underline">Broadcasts Times:</span></b> November 19 &amp; 26, 2023<br>
<b><span style="text-decoration: underline">Source:</span></b> NHK-World Japan (On-Demand)<br>
<div class="ToggleTriggerAnchor bbCodeSpoilerContainer">
<button type="button" class="button bbCodeSpoilerButton ToggleTrigger Tooltip JsOnly" data-target="> .SpoilerTarget"><span>Spoiler: <span class="SpoilerTitle">OPs and EDs? What's that!</span></span></button>
<div class="SpoilerTarget bbCodeSpoilerText">OPs mean Opening Themes, while EDs mean Ending Themes.</div>
</div><b>Part 1 - November 19, 2023</b><br>
<div class="ToggleTriggerAnchor bbCodeSpoilerContainer">
<button type="button" class="button bbCodeSpoilerButton ToggleTrigger Tooltip JsOnly" data-target="> .SpoilerTarget"><span>Spoiler: <span class="SpoilerTitle">Songlist</span></span></button>
<div class="SpoilerTarget bbCodeSpoilerText">(Text in <b>BOLD </b>are meant to show covers)<br>
FIRST ACT - 1. BE:FIRST - Mainstream<br>
2. Ryokuoushoku Shakai (緑黄色社会) - Be A Flower (花になって) (The Apothecary Diaries OP, Full Ver.)<br>
3. BAND-MAID - Shambles (Kengan Ahsurad ED 2, Full Ver.)<br>
4. <b>Mrs. GREEN APPLE - I'm Invincible (Ado Cover) (ONCE PIECE FILM RED Songs by the character Uta)</b><br>
[Q&amp;A Part]<br>
5. AiNA THE END<b> -</b> Red:birthmark (Mobile Suit Gundam: The Witch From Mercury ED 2, Full Ver.)<br>
6. CHAMELEON LIME WHOOPIEPIE - LaLaLa<br>
7. Yuka - Baby you<br>
8. imase - NIGHT DANCER<br>
9. Sakurazaka46 - Shoninyokkyu</div>
</div>
<div class="ToggleTriggerAnchor bbCodeSpoilerContainer">
<button type="button" class="button bbCodeSpoilerButton ToggleTrigger Tooltip JsOnly" data-target="> .SpoilerTarget"><span>Spoiler: <span class="SpoilerTitle">Thumbnails</span></span></button>
<div class="SpoilerTarget bbCodeSpoilerText"><img src="https://i.imgur.com/Fey7aUF.jpeg" class="bbCodeImage LbImage" alt="[​IMG]" data-url="https://i.imgur.com/Fey7aUF.jpeg" style=""></div>
</div>
<div class="ToggleTriggerAnchor bbCodeSpoilerContainer">
<button type="button" class="button bbCodeSpoilerButton ToggleTrigger Tooltip JsOnly" data-target="> .SpoilerTarget"><span>Spoiler: <span class="SpoilerTitle">MediaInfo</span></span></button>
<div class="SpoilerTarget bbCodeSpoilerText">General<br>
Format : MPEG-4<br>
Format profile : Base Media / Version 2<br>
Codec ID : mp42 (mp42/iso2/avc1/mp41)<br>
File size : 2.02 GiB<br>
Duration : 48 min 59 s<br>
Overall bit rate mode : Variable<br>
Overall bit rate : 5 891 kb/s<br>
Frame rate : 30.000 FPS<br>
Encoded date : 2024-04-03 04:32:11 UTC<br>
Tagged date : 2024-04-03 04:32:11 UTC<br>
Writing application : HandBrake 1.7.3 2024021000<br>
<br>
Video<br>
ID : 1<br>
Format : AVC<br>
Format/Info : Advanced Video Codec<br>
Format profile : Main@L3.1<br>
Format settings : CABAC / 4 Ref Frames<br>
Format settings, CABAC : Yes<br>
Format settings, Reference : 4 frames<br>
Codec ID : avc1<br>
Codec ID/Info : Advanced Video Coding<br>
Duration : 48 min 59 s<br>
Bit rate mode : Variable<br>
Bit rate : 5 752 kb/s<br>
Maximum bit rate : 11.2 Mb/s<br>
Width : 1 280 pixels<br>
Height : 720 pixels<br>
Display aspect ratio : 16:9<br>
Frame rate mode : Constant<br>
Frame rate : 30.000 FPS<br>
Color space : YUV<br>
Chroma subsampling : 4:2:0<br>
Bit depth : 8 bits<br>
Scan type : Progressive<br>
Bits/(Pixel*Frame) : 0.208<br>
Stream size : 1.97 GiB (98%)<br>
Encoded date : 2024-04-03 04:32:11 UTC<br>
Tagged date : 2024-04-03 04:32:11 UTC<br>
Color range : Limited<br>
Color primaries : BT.709<br>
Transfer characteristics : BT.709<br>
Matrix coefficients : BT.709<br>
Codec configuration box : avcC<br>
<br>
Audio<br>
ID : 2<br>
Format : AAC LC<br>
Format/Info : Advanced Audio Codec Low Complexity<br>
Codec ID : mp4a-40-2<br>
Duration : 48 min 59 s<br>
Source duration : 48 min 59 s<br>
Bit rate mode : Constant<br>
Bit rate : 132 kb/s<br>
Channel(s) : 2 channels<br>
Channel layout : L R<br>
Sampling rate : 44.1 kHz<br>
Frame rate : 43.066 FPS (1024 SPF)<br>
Compression mode : Lossy<br>
Stream size : 45.5 MiB (2%)<br>
Source stream size : 45.5 MiB (2%)<br>
Title : Stereo<br>
Default : Yes<br>
Alternate group : 1<br>
Encoded date : 2024-04-03 04:32:11 UTC<br>
Tagged date : 2024-04-03 04:32:11 UTC</div>
</div>
<div class="bbCodeBlock bbCodeVfcHH HiddenContent">
<div class="attribution type">Hidden Content:</div>
<blockquote>You must either reply or click 'Like' to see the hidden information contained here.</blockquote>
</div>Part 2 - November 26, 2023<br>
<div class="ToggleTriggerAnchor bbCodeSpoilerContainer">
<button type="button" class="button bbCodeSpoilerButton ToggleTrigger Tooltip JsOnly" data-target="> .SpoilerTarget"><span>Spoiler: <span class="SpoilerTitle">Songlist</span></span></button>
<div class="SpoilerTarget bbCodeSpoilerText">1. Queen Bee - Mephisto (OSHI NO KO ED, Full Ver.) (And no, YOASOBI is not here)<br>
2. Takahasi Yoko - The Cruel Angel's Thesis (NEON GENISIS EVANGELION OP, Full Ver.)<br>
3. Suzuki Masayuki - DADDY ! DADDY ! DO ! (Kaguaya-Sama: <span style="text-decoration: line-through">Love Is War?</span> OP, Full Ver.)<br>
4. Suzuki Masayuki &amp; Takagi Reni - Love is Show (Kaguya-sama wa Kokurasetai: First Kiss OP, Full Ver.)<br>
5. Kajiura Yuki - Demon Slayer Main Theme<br>
6. Kajiura Yuki - Magia (Madoka Magica ED, Full Ver,)<br>
7. Kajiura Yuki - SOUKYUU NO FANFARE (Sword Art Online 10th Aniversary Theme Song)<br>
[Q&amp;A Part]<br>
8. ASCA - RESISTER (Sword Art Online Alicization OP, Full Ver.)<br>
9. ReoNa - R.I.P (Arknights: PERISH IN FROST ED, Full Ver.)<br>
10. KESSOKU BAND (From Bocchi The Rock, Performed by the Voice Actor of Kita Ikuyo (Hasegawa Ikumi)) - Seisyun Complex (Bocchi The Rock OP, Full Ver.) (Performing First on TV)<br>
FINAL ACT - 11. KANJANI∞ - LIFE</div>
</div>
<div class="ToggleTriggerAnchor bbCodeSpoilerContainer">
<button type="button" class="button bbCodeSpoilerButton ToggleTrigger Tooltip JsOnly" data-target="> .SpoilerTarget"><span>Spoiler: <span class="SpoilerTitle">Thumbnails</span></span></button>
<div class="SpoilerTarget bbCodeSpoilerText"><img src="https://i.imgur.com/F5fOjvw.jpg" class="bbCodeImage LbImage" alt="[​IMG]" data-url="https://i.imgur.com/F5fOjvw.jpg" style=""></div>
</div>
<div class="ToggleTriggerAnchor bbCodeSpoilerContainer">
<button type="button" class="button bbCodeSpoilerButton ToggleTrigger Tooltip JsOnly" data-target="> .SpoilerTarget"><span>Spoiler: <span class="SpoilerTitle">MediaInfo</span></span></button>
<div class="SpoilerTarget bbCodeSpoilerText">General<br>
Format : MPEG-4<br>
Format profile : Base Media / Version 2<br>
Codec ID : mp42 (mp42/iso2/avc1/mp41)<br>
File size : 1.93 GiB<br>
Duration : 48 min 59 s<br>
Overall bit rate mode : Variable<br>
Overall bit rate : 5 633 kb/s<br>
Frame rate : 30.000 FPS<br>
Encoded date : 2024-04-03 04:40:22 UTC<br>
Tagged date : 2024-04-03 04:40:22 UTC<br>
Writing application : HandBrake 1.7.3 2024021000<br>
<br>
Video<br>
ID : 1<br>
Format : AVC<br>
Format/Info : Advanced Video Codec<br>
Format profile : Main@L3.1<br>
Format settings : CABAC / 4 Ref Frames<br>
Format settings, CABAC : Yes<br>
Format settings, Reference : 4 frames<br>
Codec ID : avc1<br>
Codec ID/Info : Advanced Video Coding<br>
Duration : 48 min 59 s<br>
Bit rate mode : Variable<br>
Bit rate : 5 495 kb/s<br>
Maximum bit rate : 11.2 Mb/s<br>
Width : 1 280 pixels<br>
Height : 720 pixels<br>
Display aspect ratio : 16:9<br>
Frame rate mode : Constant<br>
Frame rate : 30.000 FPS<br>
Color space : YUV<br>
Chroma subsampling : 4:2:0<br>
Bit depth : 8 bits<br>
Scan type : Progressive<br>
Bits/(Pixel*Frame) : 0.199<br>
Stream size : 1.88 GiB (98%)<br>
Encoded date : 2024-04-03 04:40:22 UTC<br>
Tagged date : 2024-04-03 04:40:22 UTC<br>
Color range : Limited<br>
Color primaries : BT.709<br>
Transfer characteristics : BT.709<br>
Matrix coefficients : BT.709<br>
Codec configuration box : avcC<br>
<br>
Audio<br>
ID : 2<br>
Format : AAC LC<br>
Format/Info : Advanced Audio Codec Low Complexity<br>
Codec ID : mp4a-40-2<br>
Duration : 48 min 59 s<br>
Source duration : 48 min 59 s<br>
Bit rate mode : Constant<br>
Bit rate : 132 kb/s<br>
Channel(s) : 2 channels<br>
Channel layout : L R<br>
Sampling rate : 44.1 kHz<br>
Frame rate : 43.066 FPS (1024 SPF)<br>
Compression mode : Lossy<br>
Stream size : 45.5 MiB (2%)<br>
Source stream size : 45.5 MiB (2%)<br>
Title : Stereo<br>
Default : Yes<br>
Alternate group : 1<br>
Encoded date : 2024-04-03 04:40:22 UTC<br>
Tagged date : 2024-04-03 04:40:22 UTC</div>
</div>
<div class="bbCodeBlock bbCodeVfcHH HiddenContent">
<div class="attribution type">Hidden Content:</div>
<blockquote>You must either reply or click 'Like' to see the hidden information contained here.</blockquote>
</div>
<div class="messageTextEndMarker">&nbsp;</div>
</blockquote>
</article>]]></description>
                <author><![CDATA[charlescanlom]]></author>
                </item>

                
                <item>
                <title><![CDATA[【TIDAL】WEB-RiP - Green Day - Boulevard of Broken Dreams [Tidal Music Video]]]></title>
                <link><![CDATA[https://sharemania.us/threads/green-day-boulevard-of-broken-dreams-tidal-music-video.241401/]]></link>
                <description><![CDATA[<article>
<blockquote class="messageText SelectQuoteContainer ugc baseHtml">
<span style="font-size: 22px"><b>Green Day - Boulevard of Broken Dreams [Tidal Music Video]</b></span><br>
<br>
<img src="https://imgur.com/ZMCZml9.jpg" class="bbCodeImage LbImage" alt="[​IMG]" data-url="https://imgur.com/ZMCZml9.jpg" style=""><br>
<br>
<div class="bbCodeBlock bbCodeVfcHH HiddenContent">
<div class="attribution type">Hidden Content:</div>
<blockquote>You must reply before you can see the hidden data contained here.</blockquote>
</div>
<div class="messageTextEndMarker">&nbsp;</div>
</blockquote>
</article>]]></description>
                <author><![CDATA[abby0511]]></author>
                </item>

                </channel></rss>